<svg viewBox="0 0 24 24" xmlns="http://www.w3.org/2000/svg">
    <path id="main-path" d="M10.3853 0.357324C10.8615 0.832268 10.8598 1.6006 10.3815 2.07345L4.18142 8.20317H22.778C23.4529 8.20317 24 8.74647 24 9.41666C24 10.0868 23.4529 10.6301 22.778 10.6301H4.16298L10.3853 16.8365C10.8615 17.3114 10.8598 18.0797 10.3815 18.5526C9.90325 19.0254 9.12953 19.0237 8.65336 18.5488L0.356012 10.2728C0.127347 10.0448 -0.000713027 9.73581 2.98645e-06 9.41398C0.000719 9.09214 0.130153 8.78376 0.35983 8.55669L8.65718 0.353524C9.13546 -0.119321 9.90918 -0.11762 10.3853 0.357324Z" fill="black"/>
</svg>
